<?xml version="1.0" encoding="utf-8"?>
<!-- Generator: Adobe Illustrator 16.0.4, SVG Export Plug-In . SVG Version: 6.00 Build 0)  -->
<!DOCTYPE svg PUBLIC "-//W3C//DTD SVG 1.1//EN" "http://www.w3.org/Graphics/SVG/1.1/DTD/svg11.dtd">
<svg version="1.1" id="Layer_1" xmlns="http://www.w3.org/2000/svg" xmlns:xlink="http://www.w3.org/1999/xlink" x="0px" y="0px"
	 width="126px" height="126px" viewBox="0 0 126 126" enable-background="new 0 0 126 126" xml:space="preserve">
<g>
	<path fill="#CBC4C2" d="M113.523,57.558l-8.537-11.359l-2.541-13.979c-0.788-4.338-4.25-7.67-8.618-8.29L79.76,21.935
		l-11.681-8.088c-2.935-2.032-6.639-2.391-9.91-0.961c-0.723,0.316-1.41,0.717-2.045,1.194l-11.358,8.536l-13.98,2.541
		c-0.78,0.142-1.542,0.375-2.266,0.691c-3.221,1.408-5.529,4.446-6.023,7.927l-1.995,14.067l-8.089,11.683
		c-2.51,3.625-2.417,8.43,0.232,11.956l8.537,11.356l2.54,13.979c0.789,4.34,4.251,7.67,8.619,8.291l14.068,1.996l11.68,8.088
		c2.891,2.002,6.688,2.371,9.91,0.961c0.724-0.316,1.414-0.719,2.046-1.193l11.359-8.537l13.98-2.541
		c0.779-0.141,1.541-0.373,2.266-0.689c3.221-1.407,5.527-4.444,6.022-7.928l1.995-14.068l8.089-11.682
		C116.266,65.887,116.172,61.082,113.523,57.558z M63.084,101.865c-20.598,0-37.355-16.758-37.355-37.355
		c0-20.599,16.757-37.356,37.355-37.356c20.598,0,37.355,16.757,37.355,37.356C100.439,85.107,83.682,101.865,63.084,101.865z"/>
	<path fill="#CBC4C2" d="M73.002,62.083c-0.025-0.184-0.048-0.367-0.083-0.546c-0.035-0.177-0.082-0.349-0.125-0.521
		c-0.032-0.129-0.062-0.26-0.099-0.386c-0.061-0.202-0.131-0.398-0.203-0.595c-0.033-0.089-0.062-0.18-0.098-0.268
		c-0.088-0.219-0.186-0.434-0.289-0.646c-0.026-0.056-0.053-0.113-0.082-0.169c-0.117-0.231-0.244-0.457-0.379-0.677
		c-0.018-0.031-0.035-0.061-0.055-0.09c-0.146-0.236-0.304-0.466-0.47-0.688c-0.009-0.011-0.017-0.022-0.024-0.033
		c-0.176-0.232-0.359-0.458-0.555-0.675c-1.835-2.046-4.492-3.341-7.456-3.341c-2.965,0-5.621,1.294-7.457,3.341l0,0
		c-0.196,0.218-0.382,0.445-0.558,0.679c-0.006,0.009-0.013,0.018-0.02,0.026c-0.167,0.224-0.325,0.457-0.473,0.694
		c-0.018,0.027-0.034,0.055-0.051,0.083c-0.136,0.222-0.263,0.45-0.382,0.683c-0.027,0.054-0.052,0.109-0.079,0.164
		c-0.104,0.213-0.202,0.429-0.29,0.651c-0.035,0.086-0.064,0.175-0.097,0.262c-0.073,0.198-0.144,0.396-0.204,0.6
		c-0.038,0.125-0.066,0.254-0.099,0.382c-0.044,0.174-0.091,0.347-0.126,0.524c-0.035,0.18-0.058,0.363-0.083,0.546
		c-0.019,0.134-0.044,0.266-0.058,0.403c-0.032,0.324-0.05,0.653-0.05,0.986c0,5.539,4.489,10.025,10.024,10.025
		c5.534,0,10.023-4.486,10.023-10.025c0-0.333-0.018-0.662-0.049-0.986C73.047,62.349,73.021,62.216,73.002,62.083z M63.087,69.842
		c-3.521,0-6.37-2.85-6.37-6.371c0-1.214,0.354-2.333,0.942-3.296c-0.093,0.298-0.157,0.611-0.157,0.943
		c0,1.783,1.445,3.231,3.229,3.231c1.785,0,3.229-1.45,3.229-3.231c0-1.785-1.444-3.231-3.229-3.231
		c-0.329,0-0.641,0.062-0.942,0.155c0.964-0.585,2.083-0.942,3.296-0.942c3.519,0,6.373,2.849,6.373,6.37
		S66.604,69.842,63.087,69.842z"/>
	<path fill="#CBC4C2" d="M76.66,45.093H49.511c-2.648,0-4.803,2.156-4.803,4.804v6.892h6.82c2.316-3.988,6.623-6.683,11.558-6.683
		c4.936,0,9.242,2.694,11.559,6.683h6.819v-6.892C81.463,47.249,79.311,45.093,76.66,45.093z M79.793,51.776
		c0,0.92-0.751,1.671-1.671,1.671h-3.343c-0.92,0-1.67-0.751-1.67-1.671v-3.341c0-0.92,0.75-1.67,1.67-1.67h3.343
		c0.92,0,1.671,0.75,1.671,1.67V51.776z"/>
	<path fill="#CBC4C2" d="M63.084,30.677c-18.655,0-33.833,15.177-33.833,33.833c0,18.654,15.177,33.832,33.833,33.832
		c18.656,0,33.833-15.178,33.833-33.832C96.917,45.854,81.738,30.677,63.084,30.677z M84.805,77.045c0,4.5-3.645,8.146-8.145,8.146
		H49.511c-4.499,0-8.145-3.646-8.145-8.146V49.896c0-4.5,3.646-8.145,8.145-8.145H76.66c4.5,0,8.145,3.645,8.145,8.145V77.045z"/>
</g>
</svg>
