<?xml version="1.0" encoding="utf-8"?>
<!-- Generator: Adobe Illustrator 16.0.4, SVG Export Plug-In . SVG Version: 6.00 Build 0)  -->
<!DOCTYPE svg PUBLIC "-//W3C//DTD SVG 1.1//EN" "http://www.w3.org/Graphics/SVG/1.1/DTD/svg11.dtd">
<svg version="1.1" id="Layer_1" xmlns="http://www.w3.org/2000/svg" xmlns:xlink="http://www.w3.org/1999/xlink" x="0px" y="0px"
	 width="126px" height="126px" viewBox="0 0 126 126" enable-background="new 0 0 126 126" xml:space="preserve">
<g>
	<path fill="#CBC4C2" d="M113.523,57.52l-8.535-11.359l-2.541-13.979c-0.789-4.338-4.252-7.67-8.619-8.29L79.76,21.896l-11.68-8.088
		c-2.936-2.032-6.641-2.391-9.91-0.961c-0.723,0.316-1.41,0.717-2.045,1.194l-11.359,8.536l-13.98,2.541
		c-0.779,0.142-1.541,0.375-2.266,0.691c-3.221,1.408-5.529,4.446-6.023,7.927l-1.994,14.067l-8.09,11.683
		c-2.51,3.625-2.418,8.43,0.232,11.956l8.537,11.357l2.539,13.979c0.789,4.34,4.252,7.671,8.619,8.291l14.068,1.996l11.68,8.088
		c2.891,2,6.688,2.371,9.91,0.962c0.725-0.316,1.414-0.72,2.047-1.194l11.357-8.537l13.981-2.541
		c0.777-0.142,1.541-0.375,2.265-0.691c3.221-1.407,5.528-4.444,6.022-7.928l1.994-14.066l8.09-11.682
		C116.266,65.848,116.172,61.044,113.523,57.52z M63.084,101.827c-20.598,0-37.355-16.757-37.355-37.354
		c0-20.599,16.758-37.355,37.355-37.355c20.598,0,37.355,16.757,37.355,37.355C100.439,85.07,83.682,101.827,63.084,101.827z"/>
	<path fill="#CBC4C2" d="M63.084,30.639c-18.654,0-33.832,15.177-33.832,33.833c0,18.654,15.178,33.832,33.832,33.832
		c18.656,0,33.832-15.178,33.832-33.832C96.916,45.816,81.74,30.639,63.084,30.639z M54.25,79.239h-6.936V58.371h6.936V79.239z
		 M50.783,55.521h-0.047c-2.326,0-3.83-1.603-3.83-3.606c0-2.046,1.551-3.604,3.922-3.604c2.373,0,3.834,1.559,3.879,3.604
		C54.707,53.918,53.201,55.521,50.783,55.521z M79.262,79.239h-6.936V68.074c0-2.807-1.004-4.718-3.514-4.718
		c-1.916,0-3.058,1.291-3.56,2.537c-0.185,0.446-0.229,1.068-0.229,1.691v11.654h-6.938c0,0,0.092-18.911,0-20.868h6.938v2.954
		c0.922-1.421,2.57-3.446,6.252-3.446c4.564,0,7.984,2.983,7.984,9.396v11.966H79.262z"/>
	<path fill="#CBC4C2" d="M65.025,61.397v-0.072c-0.014,0.023-0.031,0.049-0.045,0.072H65.025z"/>
</g>
</svg>
