<?xml version="1.0" encoding="utf-8"?>
<!-- Generator: Adobe Illustrator 16.0.4, SVG Export Plug-In . SVG Version: 6.00 Build 0)  -->
<!DOCTYPE svg PUBLIC "-//W3C//DTD SVG 1.1//EN" "http://www.w3.org/Graphics/SVG/1.1/DTD/svg11.dtd">
<svg version="1.1" id="Layer_1" xmlns="http://www.w3.org/2000/svg" xmlns:xlink="http://www.w3.org/1999/xlink" x="0px" y="0px"
	 width="126px" height="126px" viewBox="0 0 126 126" enable-background="new 0 0 126 126" xml:space="preserve">
<g>
	<path fill="#CBC4C2" d="M113.459,57.558l-8.537-11.359l-2.541-13.979c-0.789-4.338-4.251-7.67-8.619-8.29l-14.068-1.996
		l-11.68-8.088c-2.936-2.032-6.64-2.391-9.911-0.961c-0.723,0.316-1.41,0.717-2.045,1.194L44.7,22.615l-13.98,2.541
		c-0.78,0.142-1.542,0.375-2.266,0.691c-3.221,1.408-5.529,4.446-6.023,7.927l-1.995,14.067l-8.089,11.683
		c-2.51,3.625-2.417,8.43,0.232,11.955l8.537,11.357l2.54,13.979c0.789,4.34,4.251,7.67,8.619,8.291l14.068,1.996l11.68,8.088
		c2.891,2.002,6.688,2.371,9.911,0.961c0.724-0.315,1.414-0.719,2.045-1.192l11.359-8.537l13.98-2.541
		c0.779-0.141,1.541-0.373,2.266-0.688c3.221-1.408,5.527-4.445,6.023-7.928l1.994-14.068l8.09-11.682
		C116.201,65.887,116.107,61.082,113.459,57.558z M63.019,101.865c-20.598,0-37.355-16.758-37.355-37.355
		c0-20.599,16.757-37.356,37.355-37.356s37.355,16.757,37.355,37.356C100.375,85.107,83.617,101.865,63.019,101.865z"/>
	<path fill="#CBC4C2" d="M63.019,30.677c-18.655,0-33.833,15.177-33.833,33.833c0,13.547,8.007,25.254,19.533,30.652
		c-0.722-10.656,2.948-19.031,4.74-27.871c-3.327-5.599,0.399-16.869,7.415-14.092c8.632,3.416-7.481,20.818,3.334,22.988
		c11.292,2.275,15.903-19.589,8.899-26.698c-10.123-10.265-29.448-0.233-27.07,14.464c0.581,3.59,4.288,4.674,1.482,9.64
		c-6.475-1.434-8.406-6.541-8.163-13.348c0.4-11.149,10.014-18.947,19.659-20.024c12.197-1.371,23.631,4.472,25.213,15.943
		C86.016,69.109,78.73,83.13,65.695,82.12c-3.533-0.271-5.016-2.021-7.79-3.705c-1.31,6.871-2.881,13.489-6.799,17.756
		c3.707,1.397,7.719,2.17,11.91,2.17c18.655,0,33.833-15.178,33.833-33.832C96.852,45.854,81.674,30.677,63.019,30.677z"/>
</g>
</svg>
