<?xml version="1.0" encoding="utf-8"?>
<!-- Generator: Adobe Illustrator 16.0.4, SVG Export Plug-In . SVG Version: 6.00 Build 0)  -->
<!DOCTYPE svg PUBLIC "-//W3C//DTD SVG 1.1//EN" "http://www.w3.org/Graphics/SVG/1.1/DTD/svg11.dtd">
<svg version="1.1" id="Layer_1" xmlns="http://www.w3.org/2000/svg" xmlns:xlink="http://www.w3.org/1999/xlink" x="0px" y="0px"
	 width="126px" height="126px" viewBox="0 0 126 126" enable-background="new 0 0 126 126" xml:space="preserve">
<g>
	<path fill="#CBC4C2" d="M113.523,57.687l-8.535-11.359l-2.541-13.979c-0.789-4.338-4.252-7.67-8.619-8.29L79.76,22.063
		l-11.68-8.088c-2.936-2.032-6.641-2.391-9.91-0.961c-0.723,0.316-1.41,0.717-2.045,1.194l-11.359,8.536l-13.98,2.541
		c-0.779,0.142-1.541,0.375-2.266,0.691c-3.221,1.408-5.529,4.446-6.023,7.927L20.502,47.97l-8.09,11.683
		c-2.51,3.625-2.418,8.43,0.232,11.955l8.537,11.358l2.539,13.979c0.789,4.339,4.252,7.67,8.619,8.289l14.068,1.996l11.68,8.088
		c2.891,2.002,6.688,2.371,9.91,0.963c0.726-0.316,1.414-0.719,2.047-1.194L81.4,106.55l13.982-2.541
		c0.777-0.142,1.541-0.375,2.264-0.69c3.222-1.408,5.529-4.445,6.023-7.928l1.994-14.067l8.09-11.683
		C116.266,66.016,116.172,61.211,113.523,57.687z M63.084,101.994c-20.598,0-37.355-16.758-37.355-37.355
		s16.758-37.354,37.355-37.354c20.598,0,37.355,16.757,37.355,37.354S83.682,101.994,63.084,101.994z"/>
	<path fill="#CBC4C2" d="M63.688,67.622L53.455,97.35c3.053,0.897,6.283,1.383,9.633,1.383c3.967,0,7.777-0.687,11.32-1.936
		c-0.088-0.146-0.176-0.297-0.24-0.465L63.688,67.622z"/>
	<path fill="#CBC4C2" d="M80.23,94.104c10.133-5.906,16.944-16.886,16.944-29.463c0-5.932-1.512-11.502-4.176-16.363
		c0.151,1.09,0.235,2.252,0.235,3.51c0,3.457-0.647,7.345-2.598,12.21L80.23,94.104z"/>
	<path fill="#CBC4C2" d="M28.994,64.641c0,13.488,7.84,25.157,19.215,30.678L31.947,50.761
		C30.051,55.004,28.994,59.693,28.994,64.641z"/>
	<path fill="#CBC4C2" d="M86.102,62.917c0-4.213-1.516-7.134-2.812-9.403c-1.725-2.81-3.344-5.184-3.344-7.997
		c0-3.134,2.371-6.049,5.727-6.049c0.143,0,0.291,0.019,0.438,0.03c-6.063-5.558-14.146-8.954-23.021-8.954
		c-11.912,0-22.391,6.114-28.484,15.369c0.803,0.024,1.553,0.043,2.193,0.043c3.566,0,9.086-0.438,9.086-0.438
		c1.834-0.103,2.053,2.591,0.213,2.813c0,0-1.844,0.213-3.898,0.324L54.617,85.58l7.459-22.373L56.76,48.654
		c-1.838-0.111-3.572-0.324-3.572-0.324c-1.84-0.111-1.623-2.916,0.217-2.813c0,0,5.627,0.438,8.977,0.438
		c3.566,0,9.091-0.438,9.091-0.438c1.834-0.103,2.051,2.591,0.215,2.813c0,0-1.847,0.213-3.9,0.324l12.32,36.644l3.401-11.358
		C85.234,69.507,86.102,65.837,86.102,62.917z"/>
</g>
</svg>
